<svg xmlns="http://www.w3.org/2000/svg" xmlns:xlink="http://www.w3.org/1999/xlink" version="1.1" x="0px" y="0px" viewBox="0 0 100 125" enable-background="new 0 0 100 100" xml:space="preserve"><path fill-rule="evenodd" clip-rule="evenodd" d="M50,85c-19.33,0-35-15.67-35-35s15.67-35,35-35s35,15.67,35,35S69.33,85,50,85z   M50,18c-17.673,0-32,14.327-32,32c0,17.674,14.327,32,32,32c17.673,0,32-14.326,32-32C82,32.327,67.673,18,50,18z M51.423,69.461  L36.126,53.84c-1.536-1.568-1.536-4.112,0-5.681l15.296-15.622c0.007,0.015,4.575-2.133,5.562,1.963v32.998  C55.998,71.625,51.395,69.374,51.423,69.461z"/></svg>