<svg xmlns="http://www.w3.org/2000/svg" xmlns:xlink="http://www.w3.org/1999/xlink" version="1.1" x="0px" y="0px" viewBox="0 0 74.123 92.65124999999999" enable-background="new 0 0 74.123 74.121" xml:space="preserve"><g><g><path fill-rule="evenodd" clip-rule="evenodd" d="M72.676,65.715c1.928,1.922,1.928,5.039,0,6.961    c-1.918,1.926-5.039,1.926-6.959,0L46.676,53.633c-10.251,7.289-23.992,7.289-34.243,0c-13.309-9.451-16.419-27.901-6.967-41.2    C14.922-0.87,33.366-3.989,46.676,5.468c13.301,9.453,16.418,27.906,6.963,41.207L72.676,65.715L72.676,65.715z M50.655,29.554    c0-11.66-9.451-21.109-21.1-21.109c-11.66,0-21.111,9.45-21.111,21.109c0,11.652,9.451,21.105,21.111,21.105    C41.204,50.659,50.655,41.206,50.655,29.554L50.655,29.554z"/></svg>