<svg xmlns="http://www.w3.org/2000/svg" xmlns:xlink="http://www.w3.org/1999/xlink" version="1.1" id="Your_Icon" x="0px" y="0px" width="100px" height="100px" viewBox="5.0 -10.0 100.0 135.0" enable-background="new 0 0 100 100" xml:space="preserve">
<circle cx="84" cy="90" r="9"/>
<circle cx="32" cy="90" r="9"/>
<path d="M38.112,60.875L99,46.988V15H28.633L24.693,4.276C23.97,2.308,22.097,1,20,1H6C3.239,1,1,3.239,1,6s2.239,5,5,5h10.51  l15.259,41.538c-6.461,3.018-8.92,8.764-8.348,13.785C24.191,73.089,29.902,78,37,78h51c2.762,0,5-2.238,5-5s-2.238-5-5-5H37  c-2.296,0-3.484-1.41-3.643-2.809C33.133,63.228,34.916,61.612,38.112,60.875z"/></svg>