<svg xmlns="http://www.w3.org/2000/svg" xmlns:xlink="http://www.w3.org/1999/xlink" version="1.1" x="0px" y="0px" viewBox="0 0 100 125" enable-background="new 0 0 100 100" xml:space="preserve"><path fill-rule="evenodd" clip-rule="evenodd" d="M50,85c-19.33,0-35-15.67-35-35s15.67-35,35-35s35,15.67,35,35S69.33,85,50,85z   M67,34c0-2.209-1.791-4-4-4h-2c-2.209,0-4,1.791-4,4v15H44.988v-8.026c-0.762-3.233-4.292-1.538-4.298-1.549l-11.82,12.333  c-1.187,1.238-1.187,3.246,0,4.484l11.82,12.332c-0.022-0.068,3.536,1.709,4.298-1.549V59H63c2.209,0,4-1.791,4-4V34z"/></svg>